<?xml version="1.0" encoding="utf-8" standalone="no"?>
<!DOCTYPE svg PUBLIC "-//W3C//DTD SVG 1.1//EN"
  "http://www.w3.org/Graphics/SVG/1.1/DTD/svg11.dtd">
<svg xmlns:xlink="http://www.w3.org/1999/xlink" width="576pt" height="576pt" viewBox="0 0 576 576" xmlns="http://www.w3.org/2000/svg" version="1.1">
 <metadata>
  <rdf:RDF xmlns:dc="http://purl.org/dc/elements/1.1/" xmlns:cc="http://creativecommons.org/ns#" xmlns:rdf="http://www.w3.org/1999/02/22-rdf-syntax-ns#">
   <cc:Work>
    <dc:type rdf:resource="http://purl.org/dc/dcmitype/StillImage"/>
    <dc:date>2024-11-24T12:45:51.647936</dc:date>
    <dc:format>image/svg+xml</dc:format>
    <dc:creator>
     <cc:Agent>
      <dc:title>Matplotlib v3.9.2, https://matplotlib.org/</dc:title>
     </cc:Agent>
    </dc:creator>
   </cc:Work>
  </rdf:RDF>
 </metadata>
 <defs>
  <style type="text/css">*{stroke-linejoin: round; stroke-linecap: butt}</style>
 </defs>
 <g id="figure_1">
  <g id="patch_1">
   <path d="M 0 576 
L 576 576 
L 576 0 
L 0 0 
z
" style="fill: #ffffff"/>
  </g>
  <g id="axes_1">
   <g id="patch_2">
    <path d="M 72 512.64 
L 518.4 512.64 
L 518.4 69.12 
L 72 69.12 
z
" style="fill: #eaeaf2"/>
   </g>
   <g id="matplotlib.axis_1">
    <g id="xtick_1">
     <g id="line2d_1">
      <path d="M 72 512.64 
L 72 69.12 
" clip-path="url(#pfc537659c2)" style="fill: none; stroke: #ffffff; stroke-width: 0.8; stroke-linecap: round"/>
     </g>
     <g id="text_1">
      <!-- 0.0 -->
      <g style="fill: #262626" transform="translate(65.05 526.797812) scale(0.1 -0.1)">
       <defs>
        <path id="ArialMT-30" d="M 266 2259 
Q 266 3072 433 3567 
Q 600 4063 929 4331 
Q 1259 4600 1759 4600 
Q 2128 4600 2406 4451 
Q 2684 4303 2865 4023 
Q 3047 3744 3150 3342 
Q 3253 2941 3253 2259 
Q 3253 1453 3087 958 
Q 2922 463 2592 192 
Q 2263 -78 1759 -78 
Q 1097 -78 719 397 
Q 266 969 266 2259 
z
M 844 2259 
Q 844 1131 1108 757 
Q 1372 384 1759 384 
Q 2147 384 2411 759 
Q 2675 1134 2675 2259 
Q 2675 3391 2411 3762 
Q 2147 4134 1753 4134 
Q 1366 4134 1134 3806 
Q 844 3388 844 2259 
z
" transform="scale(0.015625)"/>
        <path id="ArialMT-2e" d="M 581 0 
L 581 641 
L 1222 641 
L 1222 0 
L 581 0 
z
" transform="scale(0.015625)"/>
       </defs>
       <use xlink:href="#ArialMT-30"/>
       <use xlink:href="#ArialMT-2e" x="55.615234"/>
       <use xlink:href="#ArialMT-30" x="83.398438"/>
      </g>
     </g>
    </g>
    <g id="xtick_2">
     <g id="line2d_2">
      <path d="M 161.28 512.64 
L 161.28 69.12 
" clip-path="url(#pfc537659c2)" style="fill: none; stroke: #ffffff; stroke-width: 0.8; stroke-linecap: round"/>
     </g>
     <g id="text_2">
      <!-- 0.2 -->
      <g style="fill: #262626" transform="translate(154.33 526.797812) scale(0.1 -0.1)">
       <defs>
        <path id="ArialMT-32" d="M 3222 541 
L 3222 0 
L 194 0 
Q 188 203 259 391 
Q 375 700 629 1000 
Q 884 1300 1366 1694 
Q 2113 2306 2375 2664 
Q 2638 3022 2638 3341 
Q 2638 3675 2398 3904 
Q 2159 4134 1775 4134 
Q 1369 4134 1125 3890 
Q 881 3647 878 3216 
L 300 3275 
Q 359 3922 746 4261 
Q 1134 4600 1788 4600 
Q 2447 4600 2831 4234 
Q 3216 3869 3216 3328 
Q 3216 3053 3103 2787 
Q 2991 2522 2730 2228 
Q 2469 1934 1863 1422 
Q 1356 997 1212 845 
Q 1069 694 975 541 
L 3222 541 
z
" transform="scale(0.015625)"/>
       </defs>
       <use xlink:href="#ArialMT-30"/>
       <use xlink:href="#ArialMT-2e" x="55.615234"/>
       <use xlink:href="#ArialMT-32" x="83.398438"/>
      </g>
     </g>
    </g>
    <g id="xtick_3">
     <g id="line2d_3">
      <path d="M 250.56 512.64 
L 250.56 69.12 
" clip-path="url(#pfc537659c2)" style="fill: none; stroke: #ffffff; stroke-width: 0.8; stroke-linecap: round"/>
     </g>
     <g id="text_3">
      <!-- 0.4 -->
      <g style="fill: #262626" transform="translate(243.61 526.797812) scale(0.1 -0.1)">
       <defs>
        <path id="ArialMT-34" d="M 2069 0 
L 2069 1097 
L 81 1097 
L 81 1613 
L 2172 4581 
L 2631 4581 
L 2631 1613 
L 3250 1613 
L 3250 1097 
L 2631 1097 
L 2631 0 
L 2069 0 
z
M 2069 1613 
L 2069 3678 
L 634 1613 
L 2069 1613 
z
" transform="scale(0.015625)"/>
       </defs>
       <use xlink:href="#ArialMT-30"/>
       <use xlink:href="#ArialMT-2e" x="55.615234"/>
       <use xlink:href="#ArialMT-34" x="83.398438"/>
      </g>
     </g>
    </g>
    <g id="xtick_4">
     <g id="line2d_4">
      <path d="M 339.84 512.64 
L 339.84 69.12 
" clip-path="url(#pfc537659c2)" style="fill: none; stroke: #ffffff; stroke-width: 0.8; stroke-linecap: round"/>
     </g>
     <g id="text_4">
      <!-- 0.6 -->
      <g style="fill: #262626" transform="translate(332.89 526.797812) scale(0.1 -0.1)">
       <defs>
        <path id="ArialMT-36" d="M 3184 3459 
L 2625 3416 
Q 2550 3747 2413 3897 
Q 2184 4138 1850 4138 
Q 1581 4138 1378 3988 
Q 1113 3794 959 3422 
Q 806 3050 800 2363 
Q 1003 2672 1297 2822 
Q 1591 2972 1913 2972 
Q 2475 2972 2870 2558 
Q 3266 2144 3266 1488 
Q 3266 1056 3080 686 
Q 2894 316 2569 119 
Q 2244 -78 1831 -78 
Q 1128 -78 684 439 
Q 241 956 241 2144 
Q 241 3472 731 4075 
Q 1159 4600 1884 4600 
Q 2425 4600 2770 4297 
Q 3116 3994 3184 3459 
z
M 888 1484 
Q 888 1194 1011 928 
Q 1134 663 1356 523 
Q 1578 384 1822 384 
Q 2178 384 2434 671 
Q 2691 959 2691 1453 
Q 2691 1928 2437 2201 
Q 2184 2475 1800 2475 
Q 1419 2475 1153 2201 
Q 888 1928 888 1484 
z
" transform="scale(0.015625)"/>
       </defs>
       <use xlink:href="#ArialMT-30"/>
       <use xlink:href="#ArialMT-2e" x="55.615234"/>
       <use xlink:href="#ArialMT-36" x="83.398438"/>
      </g>
     </g>
    </g>
    <g id="xtick_5">
     <g id="line2d_5">
      <path d="M 429.12 512.64 
L 429.12 69.12 
" clip-path="url(#pfc537659c2)" style="fill: none; stroke: #ffffff; stroke-width: 0.8; stroke-linecap: round"/>
     </g>
     <g id="text_5">
      <!-- 0.8 -->
      <g style="fill: #262626" transform="translate(422.17 526.797812) scale(0.1 -0.1)">
       <defs>
        <path id="ArialMT-38" d="M 1131 2484 
Q 781 2613 612 2850 
Q 444 3088 444 3419 
Q 444 3919 803 4259 
Q 1163 4600 1759 4600 
Q 2359 4600 2725 4251 
Q 3091 3903 3091 3403 
Q 3091 3084 2923 2848 
Q 2756 2613 2416 2484 
Q 2838 2347 3058 2040 
Q 3278 1734 3278 1309 
Q 3278 722 2862 322 
Q 2447 -78 1769 -78 
Q 1091 -78 675 323 
Q 259 725 259 1325 
Q 259 1772 486 2073 
Q 713 2375 1131 2484 
z
M 1019 3438 
Q 1019 3113 1228 2906 
Q 1438 2700 1772 2700 
Q 2097 2700 2305 2904 
Q 2513 3109 2513 3406 
Q 2513 3716 2298 3927 
Q 2084 4138 1766 4138 
Q 1444 4138 1231 3931 
Q 1019 3725 1019 3438 
z
M 838 1322 
Q 838 1081 952 856 
Q 1066 631 1291 507 
Q 1516 384 1775 384 
Q 2178 384 2440 643 
Q 2703 903 2703 1303 
Q 2703 1709 2433 1975 
Q 2163 2241 1756 2241 
Q 1359 2241 1098 1978 
Q 838 1716 838 1322 
z
" transform="scale(0.015625)"/>
       </defs>
       <use xlink:href="#ArialMT-30"/>
       <use xlink:href="#ArialMT-2e" x="55.615234"/>
       <use xlink:href="#ArialMT-38" x="83.398438"/>
      </g>
     </g>
    </g>
    <g id="xtick_6">
     <g id="line2d_6">
      <path d="M 518.4 512.64 
L 518.4 69.12 
" clip-path="url(#pfc537659c2)" style="fill: none; stroke: #ffffff; stroke-width: 0.8; stroke-linecap: round"/>
     </g>
     <g id="text_6">
      <!-- 1.0 -->
      <g style="fill: #262626" transform="translate(511.45 526.797812) scale(0.1 -0.1)">
       <defs>
        <path id="ArialMT-31" d="M 2384 0 
L 1822 0 
L 1822 3584 
Q 1619 3391 1289 3197 
Q 959 3003 697 2906 
L 697 3450 
Q 1169 3672 1522 3987 
Q 1875 4303 2022 4600 
L 2384 4600 
L 2384 0 
z
" transform="scale(0.015625)"/>
       </defs>
       <use xlink:href="#ArialMT-31"/>
       <use xlink:href="#ArialMT-2e" x="55.615234"/>
       <use xlink:href="#ArialMT-30" x="83.398438"/>
      </g>
     </g>
    </g>
    <g id="text_7">
     <!-- False Positive Rate -->
     <g style="fill: #262626" transform="translate(252.128125 539.943125) scale(0.1 -0.1)">
      <defs>
       <path id="ArialMT-46" d="M 525 0 
L 525 4581 
L 3616 4581 
L 3616 4041 
L 1131 4041 
L 1131 2622 
L 3281 2622 
L 3281 2081 
L 1131 2081 
L 1131 0 
L 525 0 
z
" transform="scale(0.015625)"/>
       <path id="ArialMT-61" d="M 2588 409 
Q 2275 144 1986 34 
Q 1697 -75 1366 -75 
Q 819 -75 525 192 
Q 231 459 231 875 
Q 231 1119 342 1320 
Q 453 1522 633 1644 
Q 813 1766 1038 1828 
Q 1203 1872 1538 1913 
Q 2219 1994 2541 2106 
Q 2544 2222 2544 2253 
Q 2544 2597 2384 2738 
Q 2169 2928 1744 2928 
Q 1347 2928 1158 2789 
Q 969 2650 878 2297 
L 328 2372 
Q 403 2725 575 2942 
Q 747 3159 1072 3276 
Q 1397 3394 1825 3394 
Q 2250 3394 2515 3294 
Q 2781 3194 2906 3042 
Q 3031 2891 3081 2659 
Q 3109 2516 3109 2141 
L 3109 1391 
Q 3109 606 3145 398 
Q 3181 191 3288 0 
L 2700 0 
Q 2613 175 2588 409 
z
M 2541 1666 
Q 2234 1541 1622 1453 
Q 1275 1403 1131 1340 
Q 988 1278 909 1158 
Q 831 1038 831 891 
Q 831 666 1001 516 
Q 1172 366 1500 366 
Q 1825 366 2078 508 
Q 2331 650 2450 897 
Q 2541 1088 2541 1459 
L 2541 1666 
z
" transform="scale(0.015625)"/>
       <path id="ArialMT-6c" d="M 409 0 
L 409 4581 
L 972 4581 
L 972 0 
L 409 0 
z
" transform="scale(0.015625)"/>
       <path id="ArialMT-73" d="M 197 991 
L 753 1078 
Q 800 744 1014 566 
Q 1228 388 1613 388 
Q 2000 388 2187 545 
Q 2375 703 2375 916 
Q 2375 1106 2209 1216 
Q 2094 1291 1634 1406 
Q 1016 1563 777 1677 
Q 538 1791 414 1992 
Q 291 2194 291 2438 
Q 291 2659 392 2848 
Q 494 3038 669 3163 
Q 800 3259 1026 3326 
Q 1253 3394 1513 3394 
Q 1903 3394 2198 3281 
Q 2494 3169 2634 2976 
Q 2775 2784 2828 2463 
L 2278 2388 
Q 2241 2644 2061 2787 
Q 1881 2931 1553 2931 
Q 1166 2931 1000 2803 
Q 834 2675 834 2503 
Q 834 2394 903 2306 
Q 972 2216 1119 2156 
Q 1203 2125 1616 2013 
Q 2213 1853 2448 1751 
Q 2684 1650 2818 1456 
Q 2953 1263 2953 975 
Q 2953 694 2789 445 
Q 2625 197 2315 61 
Q 2006 -75 1616 -75 
Q 969 -75 630 194 
Q 291 463 197 991 
z
" transform="scale(0.015625)"/>
       <path id="ArialMT-65" d="M 2694 1069 
L 3275 997 
Q 3138 488 2766 206 
Q 2394 -75 1816 -75 
Q 1088 -75 661 373 
Q 234 822 234 1631 
Q 234 2469 665 2931 
Q 1097 3394 1784 3394 
Q 2450 3394 2872 2941 
Q 3294 2488 3294 1666 
Q 3294 1616 3291 1516 
L 816 1516 
Q 847 969 1125 678 
Q 1403 388 1819 388 
Q 2128 388 2347 550 
Q 2566 713 2694 1069 
z
M 847 1978 
L 2700 1978 
Q 2663 2397 2488 2606 
Q 2219 2931 1791 2931 
Q 1403 2931 1139 2672 
Q 875 2413 847 1978 
z
" transform="scale(0.015625)"/>
       <path id="ArialMT-20" transform="scale(0.015625)"/>
       <path id="ArialMT-50" d="M 494 0 
L 494 4581 
L 2222 4581 
Q 2678 4581 2919 4538 
Q 3256 4481 3484 4323 
Q 3713 4166 3852 3881 
Q 3991 3597 3991 3256 
Q 3991 2672 3619 2267 
Q 3247 1863 2275 1863 
L 1100 1863 
L 1100 0 
L 494 0 
z
M 1100 2403 
L 2284 2403 
Q 2872 2403 3119 2622 
Q 3366 2841 3366 3238 
Q 3366 3525 3220 3729 
Q 3075 3934 2838 4000 
Q 2684 4041 2272 4041 
L 1100 4041 
L 1100 2403 
z
" transform="scale(0.015625)"/>
       <path id="ArialMT-6f" d="M 213 1659 
Q 213 2581 725 3025 
Q 1153 3394 1769 3394 
Q 2453 3394 2887 2945 
Q 3322 2497 3322 1706 
Q 3322 1066 3130 698 
Q 2938 331 2570 128 
Q 2203 -75 1769 -75 
Q 1072 -75 642 372 
Q 213 819 213 1659 
z
M 791 1659 
Q 791 1022 1069 705 
Q 1347 388 1769 388 
Q 2188 388 2466 706 
Q 2744 1025 2744 1678 
Q 2744 2294 2464 2611 
Q 2184 2928 1769 2928 
Q 1347 2928 1069 2612 
Q 791 2297 791 1659 
z
" transform="scale(0.015625)"/>
       <path id="ArialMT-69" d="M 425 3934 
L 425 4581 
L 988 4581 
L 988 3934 
L 425 3934 
z
M 425 0 
L 425 3319 
L 988 3319 
L 988 0 
L 425 0 
z
" transform="scale(0.015625)"/>
       <path id="ArialMT-74" d="M 1650 503 
L 1731 6 
Q 1494 -44 1306 -44 
Q 1000 -44 831 53 
Q 663 150 594 308 
Q 525 466 525 972 
L 525 2881 
L 113 2881 
L 113 3319 
L 525 3319 
L 525 4141 
L 1084 4478 
L 1084 3319 
L 1650 3319 
L 1650 2881 
L 1084 2881 
L 1084 941 
Q 1084 700 1114 631 
Q 1144 563 1211 522 
Q 1278 481 1403 481 
Q 1497 481 1650 503 
z
" transform="scale(0.015625)"/>
       <path id="ArialMT-76" d="M 1344 0 
L 81 3319 
L 675 3319 
L 1388 1331 
Q 1503 1009 1600 663 
Q 1675 925 1809 1294 
L 2547 3319 
L 3125 3319 
L 1869 0 
L 1344 0 
z
" transform="scale(0.015625)"/>
       <path id="ArialMT-52" d="M 503 0 
L 503 4581 
L 2534 4581 
Q 3147 4581 3465 4457 
Q 3784 4334 3975 4021 
Q 4166 3709 4166 3331 
Q 4166 2844 3850 2509 
Q 3534 2175 2875 2084 
Q 3116 1969 3241 1856 
Q 3506 1613 3744 1247 
L 4541 0 
L 3778 0 
L 3172 953 
Q 2906 1366 2734 1584 
Q 2563 1803 2427 1890 
Q 2291 1978 2150 2013 
Q 2047 2034 1813 2034 
L 1109 2034 
L 1109 0 
L 503 0 
z
M 1109 2559 
L 2413 2559 
Q 2828 2559 3062 2645 
Q 3297 2731 3419 2920 
Q 3541 3109 3541 3331 
Q 3541 3656 3305 3865 
Q 3069 4075 2559 4075 
L 1109 4075 
L 1109 2559 
z
" transform="scale(0.015625)"/>
      </defs>
      <use xlink:href="#ArialMT-46"/>
      <use xlink:href="#ArialMT-61" x="61.083984"/>
      <use xlink:href="#ArialMT-6c" x="116.699219"/>
      <use xlink:href="#ArialMT-73" x="138.916016"/>
      <use xlink:href="#ArialMT-65" x="188.916016"/>
      <use xlink:href="#ArialMT-20" x="244.53125"/>
      <use xlink:href="#ArialMT-50" x="272.314453"/>
      <use xlink:href="#ArialMT-6f" x="339.013672"/>
      <use xlink:href="#ArialMT-73" x="394.628906"/>
      <use xlink:href="#ArialMT-69" x="444.628906"/>
      <use xlink:href="#ArialMT-74" x="466.845703"/>
      <use xlink:href="#ArialMT-69" x="494.628906"/>
      <use xlink:href="#ArialMT-76" x="516.845703"/>
      <use xlink:href="#ArialMT-65" x="566.845703"/>
      <use xlink:href="#ArialMT-20" x="622.460938"/>
      <use xlink:href="#ArialMT-52" x="650.244141"/>
      <use xlink:href="#ArialMT-61" x="722.460938"/>
      <use xlink:href="#ArialMT-74" x="778.076172"/>
      <use xlink:href="#ArialMT-65" x="805.859375"/>
     </g>
    </g>
   </g>
   <g id="matplotlib.axis_2">
    <g id="ytick_1">
     <g id="line2d_7">
      <path d="M 72 512.64 
L 518.4 512.64 
" clip-path="url(#pfc537659c2)" style="fill: none; stroke: #ffffff; stroke-width: 0.8; stroke-linecap: round"/>
     </g>
     <g id="text_8">
      <!-- 0.0 -->
      <g style="fill: #262626" transform="translate(51.1 516.218906) scale(0.1 -0.1)">
       <use xlink:href="#ArialMT-30"/>
       <use xlink:href="#ArialMT-2e" x="55.615234"/>
       <use xlink:href="#ArialMT-30" x="83.398438"/>
      </g>
     </g>
    </g>
    <g id="ytick_2">
     <g id="line2d_8">
      <path d="M 72 423.936 
L 518.4 423.936 
" clip-path="url(#pfc537659c2)" style="fill: none; stroke: #ffffff; stroke-width: 0.8; stroke-linecap: round"/>
     </g>
     <g id="text_9">
      <!-- 0.2 -->
      <g style="fill: #262626" transform="translate(51.1 427.514906) scale(0.1 -0.1)">
       <use xlink:href="#ArialMT-30"/>
       <use xlink:href="#ArialMT-2e" x="55.615234"/>
       <use xlink:href="#ArialMT-32" x="83.398438"/>
      </g>
     </g>
    </g>
    <g id="ytick_3">
     <g id="line2d_9">
      <path d="M 72 335.232 
L 518.4 335.232 
" clip-path="url(#pfc537659c2)" style="fill: none; stroke: #ffffff; stroke-width: 0.8; stroke-linecap: round"/>
     </g>
     <g id="text_10">
      <!-- 0.4 -->
      <g style="fill: #262626" transform="translate(51.1 338.810906) scale(0.1 -0.1)">
       <use xlink:href="#ArialMT-30"/>
       <use xlink:href="#ArialMT-2e" x="55.615234"/>
       <use xlink:href="#ArialMT-34" x="83.398438"/>
      </g>
     </g>
    </g>
    <g id="ytick_4">
     <g id="line2d_10">
      <path d="M 72 246.528 
L 518.4 246.528 
" clip-path="url(#pfc537659c2)" style="fill: none; stroke: #ffffff; stroke-width: 0.8; stroke-linecap: round"/>
     </g>
     <g id="text_11">
      <!-- 0.6 -->
      <g style="fill: #262626" transform="translate(51.1 250.106906) scale(0.1 -0.1)">
       <use xlink:href="#ArialMT-30"/>
       <use xlink:href="#ArialMT-2e" x="55.615234"/>
       <use xlink:href="#ArialMT-36" x="83.398438"/>
      </g>
     </g>
    </g>
    <g id="ytick_5">
     <g id="line2d_11">
      <path d="M 72 157.824 
L 518.4 157.824 
" clip-path="url(#pfc537659c2)" style="fill: none; stroke: #ffffff; stroke-width: 0.8; stroke-linecap: round"/>
     </g>
     <g id="text_12">
      <!-- 0.8 -->
      <g style="fill: #262626" transform="translate(51.1 161.402906) scale(0.1 -0.1)">
       <use xlink:href="#ArialMT-30"/>
       <use xlink:href="#ArialMT-2e" x="55.615234"/>
       <use xlink:href="#ArialMT-38" x="83.398438"/>
      </g>
     </g>
    </g>
    <g id="ytick_6">
     <g id="line2d_12">
      <path d="M 72 69.12 
L 518.4 69.12 
" clip-path="url(#pfc537659c2)" style="fill: none; stroke: #ffffff; stroke-width: 0.8; stroke-linecap: round"/>
     </g>
     <g id="text_13">
      <!-- 1.0 -->
      <g style="fill: #262626" transform="translate(51.1 72.698906) scale(0.1 -0.1)">
       <use xlink:href="#ArialMT-31"/>
       <use xlink:href="#ArialMT-2e" x="55.615234"/>
       <use xlink:href="#ArialMT-30" x="83.398438"/>
      </g>
     </g>
    </g>
    <g id="text_14">
     <!-- True Positive Rate -->
     <g style="fill: #262626" transform="translate(45.1125 331.818281) rotate(-90) scale(0.1 -0.1)">
      <defs>
       <path id="ArialMT-54" d="M 1659 0 
L 1659 4041 
L 150 4041 
L 150 4581 
L 3781 4581 
L 3781 4041 
L 2266 4041 
L 2266 0 
L 1659 0 
z
" transform="scale(0.015625)"/>
       <path id="ArialMT-72" d="M 416 0 
L 416 3319 
L 922 3319 
L 922 2816 
Q 1116 3169 1280 3281 
Q 1444 3394 1641 3394 
Q 1925 3394 2219 3213 
L 2025 2691 
Q 1819 2813 1613 2813 
Q 1428 2813 1281 2702 
Q 1134 2591 1072 2394 
Q 978 2094 978 1738 
L 978 0 
L 416 0 
z
" transform="scale(0.015625)"/>
       <path id="ArialMT-75" d="M 2597 0 
L 2597 488 
Q 2209 -75 1544 -75 
Q 1250 -75 995 37 
Q 741 150 617 320 
Q 494 491 444 738 
Q 409 903 409 1263 
L 409 3319 
L 972 3319 
L 972 1478 
Q 972 1038 1006 884 
Q 1059 663 1231 536 
Q 1403 409 1656 409 
Q 1909 409 2131 539 
Q 2353 669 2445 892 
Q 2538 1116 2538 1541 
L 2538 3319 
L 3100 3319 
L 3100 0 
L 2597 0 
z
" transform="scale(0.015625)"/>
      </defs>
      <use xlink:href="#ArialMT-54"/>
      <use xlink:href="#ArialMT-72" x="57.333984"/>
      <use xlink:href="#ArialMT-75" x="90.634766"/>
      <use xlink:href="#ArialMT-65" x="146.25"/>
      <use xlink:href="#ArialMT-20" x="201.865234"/>
      <use xlink:href="#ArialMT-50" x="229.648438"/>
      <use xlink:href="#ArialMT-6f" x="296.347656"/>
      <use xlink:href="#ArialMT-73" x="351.962891"/>
      <use xlink:href="#ArialMT-69" x="401.962891"/>
      <use xlink:href="#ArialMT-74" x="424.179688"/>
      <use xlink:href="#ArialMT-69" x="451.962891"/>
      <use xlink:href="#ArialMT-76" x="474.179688"/>
      <use xlink:href="#ArialMT-65" x="524.179688"/>
      <use xlink:href="#ArialMT-20" x="579.794922"/>
      <use xlink:href="#ArialMT-52" x="607.578125"/>
      <use xlink:href="#ArialMT-61" x="679.794922"/>
      <use xlink:href="#ArialMT-74" x="735.410156"/>
      <use xlink:href="#ArialMT-65" x="763.193359"/>
     </g>
    </g>
   </g>
   <g id="PolyCollection_1">
    <path d="M 72 512.532813 
L 72 512.639276 
L 72.04464 509.621952 
L 72.04464 504.764352 
L 72.04464 504.764352 
L 72 512.532813 
z
" clip-path="url(#pfc537659c2)" style="fill: #1f77b4; fill-opacity: 0.2; stroke: #1f77b4; stroke-opacity: 0.2"/>
    <path d="M 515.900171 69.12 
L 515.900171 69.12 
L 515.900171 69.12 
L 515.900171 69.12 
z
" clip-path="url(#pfc537659c2)" style="fill: #1f77b4; fill-opacity: 0.2; stroke: #1f77b4; stroke-opacity: 0.2"/>
   </g>
   <g id="PolyCollection_2">
    <path d="M 72 511.949523 
L 72 512.469604 
L 72.04464 508.565952 
L 72.13392 507.400128 
L 72.17856 504.5616 
L 72.26784 502.24896 
L 72.26784 500.766336 
L 72.26784 500.766336 
L 72.17856 503.48448 
L 72.13392 505.727424 
L 72.04464 508.002048 
L 72 511.949523 
z
" clip-path="url(#pfc537659c2)" style="fill: #ff7f0e; fill-opacity: 0.2; stroke: #ff7f0e; stroke-opacity: 0.2"/>
    <path d="M 74.18736 463.371265 
L 74.18736 465.912001 
L 74.18736 463.371265 
L 74.18736 463.371265 
z
" clip-path="url(#pfc537659c2)" style="fill: #ff7f0e; fill-opacity: 0.2; stroke: #ff7f0e; stroke-opacity: 0.2"/>
   </g>
   <g id="PolyCollection_3">
    <path d="M 72 512.587622 
L 72 512.638596 
L 72.04464 511.410816 
L 72.04464 507.22272 
L 72.04464 507.22272 
L 72 512.587622 
z
" clip-path="url(#pfc537659c2)" style="fill: #2ca02c; fill-opacity: 0.2; stroke: #2ca02c; stroke-opacity: 0.2"/>
    <path d="M 518.4 69.12 
L 518.4 69.12 
L 518.4 69.12 
L 518.4 69.12 
z
" clip-path="url(#pfc537659c2)" style="fill: #2ca02c; fill-opacity: 0.2; stroke: #2ca02c; stroke-opacity: 0.2"/>
   </g>
   <g id="PolyCollection_4">
    <defs>
     <path id="m43e3da92d1" d="M 72 -63.739242 
L 72 -63.543053 
L 72.04464 -66.309149 
L 72.08928 -71.510472 
L 72.13392 -80.95127 
L 72.13392 -90.62761 
L 72.13392 -90.62761 
L 72.08928 -75.009121 
L 72.04464 -67.662475 
L 72 -63.739242 
z
" style="stroke: #d62728; stroke-opacity: 0.2"/>
    </defs>
    <g clip-path="url(#pfc537659c2)">
     <use xlink:href="#m43e3da92d1" x="0" y="576" style="fill: #d62728; fill-opacity: 0.2; stroke: #d62728; stroke-opacity: 0.2"/>
    </g>
   </g>
   <g id="PolyCollection_5">
    <path d="M 72 511.908519 
L 72 512.208256 
L 72 511.908519 
L 72 511.908519 
z
" clip-path="url(#pfc537659c2)" style="fill: #9467bd; fill-opacity: 0.2; stroke: #9467bd; stroke-opacity: 0.2"/>
    <path d="M 72.08928 501.767424 
L 72.08928 507.241728 
L 72.08928 501.767424 
L 72.08928 501.767424 
z
" clip-path="url(#pfc537659c2)" style="fill: #9467bd; fill-opacity: 0.2; stroke: #9467bd; stroke-opacity: 0.2"/>
   </g>
   <g id="PolyCollection_6">
    <path d="M 72.13392 510.321024 
L 72.13392 511.195392 
L 72.17856 509.484672 
L 72.2232 507.913344 
L 72.2232 507.235392 
L 72.2232 507.235392 
L 72.17856 508.654656 
L 72.13392 510.321024 
z
" clip-path="url(#pfc537659c2)" style="fill: #8c564b; fill-opacity: 0.2; stroke: #8c564b; stroke-opacity: 0.2"/>
    <path d="M 72.53568 503.110656 
L 72.53568 504.808704 
L 72.53568 503.110656 
L 72.53568 503.110656 
z
" clip-path="url(#pfc537659c2)" style="fill: #8c564b; fill-opacity: 0.2; stroke: #8c564b; stroke-opacity: 0.2"/>
    <path d="M 72.8928 498.428352 
L 72.8928 499.480128 
L 72.8928 498.428352 
L 72.8928 498.428352 
z
" clip-path="url(#pfc537659c2)" style="fill: #8c564b; fill-opacity: 0.2; stroke: #8c564b; stroke-opacity: 0.2"/>
    <path d="M 73.02672 492.947712 
L 73.02672 495.235008 
L 73.02672 492.947712 
L 73.02672 492.947712 
z
" clip-path="url(#pfc537659c2)" style="fill: #8c564b; fill-opacity: 0.2; stroke: #8c564b; stroke-opacity: 0.2"/>
    <path d="M 73.47312 486.130175 
L 73.47312 487.334016 
L 73.47312 486.130175 
L 73.47312 486.130175 
z
" clip-path="url(#pfc537659c2)" style="fill: #8c564b; fill-opacity: 0.2; stroke: #8c564b; stroke-opacity: 0.2"/>
    <path d="M 73.96416 474.275522 
L 73.96416 475.929216 
L 73.96416 474.275522 
L 73.96416 474.275522 
z
" clip-path="url(#pfc537659c2)" style="fill: #8c564b; fill-opacity: 0.2; stroke: #8c564b; stroke-opacity: 0.2"/>
    <path d="M 74.09808 469.447489 
L 74.09808 471.018816 
L 74.09808 469.447489 
L 74.09808 469.447489 
z
" clip-path="url(#pfc537659c2)" style="fill: #8c564b; fill-opacity: 0.2; stroke: #8c564b; stroke-opacity: 0.2"/>
    <path d="M 518.4 69.12 
L 518.4 69.12 
L 518.4 69.12 
L 518.4 69.12 
z
" clip-path="url(#pfc537659c2)" style="fill: #8c564b; fill-opacity: 0.2; stroke: #8c564b; stroke-opacity: 0.2"/>
   </g>
   <g id="PolyCollection_7">
    <path d="M 72 512.509563 
L 72 512.610881 
L 72 512.509563 
L 72 512.509563 
z
" clip-path="url(#pfc537659c2)" style="fill: #e377c2; fill-opacity: 0.2; stroke: #e377c2; stroke-opacity: 0.2"/>
    <path d="M 72.08928 499.321728 
L 72.08928 508.375872 
L 72.08928 499.321728 
L 72.08928 499.321728 
z
" clip-path="url(#pfc537659c2)" style="fill: #e377c2; fill-opacity: 0.2; stroke: #e377c2; stroke-opacity: 0.2"/>
   </g>
   <g id="line2d_13">
    <path d="M 72 512.64 
L 518.4 69.12 
" clip-path="url(#pfc537659c2)" style="fill: none; stroke-dasharray: 5.55,2.4; stroke-dashoffset: 0; stroke: #000000; stroke-width: 1.5"/>
   </g>
   <g id="line2d_14">
    <path d="M 72 512.597639 
L 72.04464 507.767616 
L 72.17856 499.948992 
L 72.40176 492.624575 
L 72.71424 484.178689 
L 72.80352 473.927041 
L 73.42848 456.547391 
L 75.92832 425.526333 
L 77.66928 403.743165 
L 79.09776 383.474308 
L 80.34768 362.470468 
L 81.91008 337.924806 
L 84.63312 306.067397 
L 89.141761 250.912508 
L 515.900171 69.12 
" clip-path="url(#pfc537659c2)" style="fill: none; stroke: #1f77b4; stroke-width: 1.5; stroke-linecap: round"/>
   </g>
   <g id="line2d_15">
    <path d="M 72 512.223215 
L 72.04464 508.284 
L 72.13392 506.58912 
L 72.17856 504.02304 
L 72.26784 501.507648 
L 72.53568 498.491712 
L 72.6696 495.811584 
L 72.93744 493.137793 
L 72.98208 490.508352 
L 73.20528 487.853568 
L 73.24992 485.091071 
L 73.3392 482.410944 
L 73.42848 479.762497 
L 73.60704 476.885953 
L 73.69632 474.085441 
L 73.83024 471.322944 
L 73.96416 468.737855 
L 74.18736 464.641633 
L 74.27664 460.564415 
L 74.41056 457.903296 
L 74.6784 455.261181 
L 74.85696 452.54304 
L 75.08016 449.679165 
L 75.30336 446.910334 
L 75.43728 443.824701 
L 75.66048 440.897473 
L 75.74976 437.868862 
L 75.97296 434.770561 
L 76.28544 431.279422 
L 76.55328 428.225473 
L 76.86576 424.994113 
L 77.08896 421.661379 
L 77.31216 418.347651 
L 77.62464 414.7488 
L 77.66928 411.333698 
L 77.84784 407.608126 
L 78.0264 403.774848 
L 78.29424 399.574085 
L 78.4728 395.557052 
L 78.74064 390.995136 
L 78.9192 386.388861 
L 79.32096 381.66221 
L 79.85664 376.53639 
L 80.2584 370.757949 
L 80.61552 364.738757 
L 80.928 358.016252 
L 81.46368 350.900923 
L 81.86544 342.645126 
L 82.4904 333.438906 
L 83.65104 322.933827 
L 84.58848 309.254398 
L 85.92768 290.645567 
L 88.42752 262.817867 
L 518.4 69.12 
" clip-path="url(#pfc537659c2)" style="fill: none; stroke: #ff7f0e; stroke-width: 1.5; stroke-linecap: round"/>
   </g>
   <g id="line2d_16">
    <path d="M 72 512.618458 
L 72.04464 509.51424 
L 72.13392 501.241536 
L 72.26784 483.507073 
L 518.4 69.12 
" clip-path="url(#pfc537659c2)" style="fill: none; stroke: #2ca02c; stroke-width: 1.5; stroke-linecap: round"/>
   </g>
   <g id="line2d_17">
    <path d="M 72 512.364384 
L 72.04464 509.069952 
L 72.08928 502.891611 
L 72.13392 490.460198 
L 72.17856 473.027326 
L 72.35712 455.926466 
L 518.4 69.12 
" clip-path="url(#pfc537659c2)" style="fill: none; stroke: #d62728; stroke-width: 1.5; stroke-linecap: round"/>
   </g>
   <g id="line2d_18">
    <path d="M 72 512.070299 
L 72.04464 508.64832 
L 72.08928 504.8388 
L 518.4 69.12 
" clip-path="url(#pfc537659c2)" style="fill: none; stroke: #9467bd; stroke-width: 1.5; stroke-linecap: round"/>
   </g>
   <g id="line2d_19">
    <path d="M 72 512.64 
L 72.08928 511.905024 
L 72.13392 510.758208 
L 72.17856 509.069664 
L 72.2232 507.574368 
L 72.35712 506.373696 
L 72.49104 505.714752 
L 72.53568 503.936448 
L 72.58032 502.286976 
L 72.6696 501.368256 
L 72.84816 500.468544 
L 72.8928 498.95424 
L 72.93744 497.376577 
L 72.98208 496.369153 
L 73.02672 494.11776 
L 73.116 491.952959 
L 73.16064 490.768128 
L 73.3392 489.595969 
L 73.42848 488.487168 
L 73.47312 486.732096 
L 73.51776 484.748927 
L 73.60704 483.52608 
L 73.65168 482.17651 
L 73.74096 480.839616 
L 73.83024 479.173249 
L 73.87488 477.494209 
L 73.96416 475.102369 
L 74.05344 472.716864 
L 74.09808 470.233153 
L 74.27664 467.597376 
L 74.41056 465.918336 
L 74.49984 464.220288 
L 74.6784 462.186433 
L 74.85696 460.025857 
L 75.08016 458.207424 
L 75.16944 456.084863 
L 75.348 453.936963 
L 75.43728 451.617984 
L 75.52656 448.988542 
L 75.61584 446.561856 
L 75.74976 444.033789 
L 76.10688 441.467714 
L 76.33008 438.743235 
L 76.50864 435.701949 
L 76.77648 432.63533 
L 76.95504 429.657411 
L 77.22288 426.273985 
L 77.3568 422.820862 
L 77.49072 419.45645 
L 77.71392 416.085694 
L 77.93712 412.448834 
L 78.07104 408.482498 
L 78.38352 404.199362 
L 78.51744 400.201342 
L 78.78528 395.759802 
L 79.05312 391.064834 
L 79.45488 385.93267 
L 79.812 380.477381 
L 80.2584 374.952381 
L 80.66016 369.002886 
L 81.1512 362.464124 
L 81.41904 355.963389 
L 81.95472 348.803714 
L 82.31184 341.27021 
L 83.24928 333.749382 
L 83.91888 325.347844 
L 84.45456 316.591483 
L 85.21344 306.637632 
L 86.0616 296.690111 
L 87.04368 285.893564 
L 87.71328 274.311356 
L 88.963199 261.54432 
L 90.213121 248.865976 
L 91.32912 234.141127 
L 92.7576 219.074119 
L 94.32 202.834945 
L 96.86448 185.867147 
L 99.81072 167.841226 
L 103.60512 149.105662 
L 109.452959 130.572861 
L 116.729279 112.508926 
L 126.103681 96.662589 
L 143.156161 83.743494 
L 173.868482 75.094846 
L 226.320478 70.608973 
L 319.528793 69.272059 
L 442.244161 69.12 
L 518.4 69.12 
" clip-path="url(#pfc537659c2)" style="fill: none; stroke: #8c564b; stroke-width: 1.5; stroke-linecap: round"/>
   </g>
   <g id="line2d_20">
    <path d="M 72 512.564912 
L 72.04464 509.972544 
L 72.08928 504.26592 
L 72.13392 486.047808 
L 518.4 69.12 
" clip-path="url(#pfc537659c2)" style="fill: none; stroke: #e377c2; stroke-width: 1.5; stroke-linecap: round"/>
   </g>
   <g id="patch_3">
    <path d="M 72 512.64 
L 72 69.12 
" style="fill: none; stroke: #ffffff; stroke-width: 0.8; stroke-linejoin: miter; stroke-linecap: square"/>
   </g>
   <g id="patch_4">
    <path d="M 518.4 512.64 
L 518.4 69.12 
" style="fill: none; stroke: #ffffff; stroke-width: 0.8; stroke-linejoin: miter; stroke-linecap: square"/>
   </g>
   <g id="patch_5">
    <path d="M 72 512.64 
L 518.4 512.64 
" style="fill: none; stroke: #ffffff; stroke-width: 0.8; stroke-linejoin: miter; stroke-linecap: square"/>
   </g>
   <g id="patch_6">
    <path d="M 72 69.12 
L 518.4 69.12 
" style="fill: none; stroke: #ffffff; stroke-width: 0.8; stroke-linejoin: miter; stroke-linecap: square"/>
   </g>
   <g id="text_15">
    <!-- ROC Curve on ViT -->
    <g style="fill: #262626" transform="translate(245.294062 63.12) scale(0.12 -0.12)">
     <defs>
      <path id="ArialMT-4f" d="M 309 2231 
Q 309 3372 921 4017 
Q 1534 4663 2503 4663 
Q 3138 4663 3647 4359 
Q 4156 4056 4423 3514 
Q 4691 2972 4691 2284 
Q 4691 1588 4409 1038 
Q 4128 488 3612 205 
Q 3097 -78 2500 -78 
Q 1853 -78 1343 234 
Q 834 547 571 1087 
Q 309 1628 309 2231 
z
M 934 2222 
Q 934 1394 1379 917 
Q 1825 441 2497 441 
Q 3181 441 3623 922 
Q 4066 1403 4066 2288 
Q 4066 2847 3877 3264 
Q 3688 3681 3323 3911 
Q 2959 4141 2506 4141 
Q 1863 4141 1398 3698 
Q 934 3256 934 2222 
z
" transform="scale(0.015625)"/>
      <path id="ArialMT-43" d="M 3763 1606 
L 4369 1453 
Q 4178 706 3683 314 
Q 3188 -78 2472 -78 
Q 1731 -78 1267 223 
Q 803 525 561 1097 
Q 319 1669 319 2325 
Q 319 3041 592 3573 
Q 866 4106 1370 4382 
Q 1875 4659 2481 4659 
Q 3169 4659 3637 4309 
Q 4106 3959 4291 3325 
L 3694 3184 
Q 3534 3684 3231 3912 
Q 2928 4141 2469 4141 
Q 1941 4141 1586 3887 
Q 1231 3634 1087 3207 
Q 944 2781 944 2328 
Q 944 1744 1114 1308 
Q 1284 872 1643 656 
Q 2003 441 2422 441 
Q 2931 441 3284 734 
Q 3638 1028 3763 1606 
z
" transform="scale(0.015625)"/>
      <path id="ArialMT-6e" d="M 422 0 
L 422 3319 
L 928 3319 
L 928 2847 
Q 1294 3394 1984 3394 
Q 2284 3394 2536 3286 
Q 2788 3178 2913 3003 
Q 3038 2828 3088 2588 
Q 3119 2431 3119 2041 
L 3119 0 
L 2556 0 
L 2556 2019 
Q 2556 2363 2490 2533 
Q 2425 2703 2258 2804 
Q 2091 2906 1866 2906 
Q 1506 2906 1245 2678 
Q 984 2450 984 1813 
L 984 0 
L 422 0 
z
" transform="scale(0.015625)"/>
      <path id="ArialMT-56" d="M 1803 0 
L 28 4581 
L 684 4581 
L 1875 1253 
Q 2019 853 2116 503 
Q 2222 878 2363 1253 
L 3600 4581 
L 4219 4581 
L 2425 0 
L 1803 0 
z
" transform="scale(0.015625)"/>
     </defs>
     <use xlink:href="#ArialMT-52"/>
     <use xlink:href="#ArialMT-4f" x="72.216797"/>
     <use xlink:href="#ArialMT-43" x="150"/>
     <use xlink:href="#ArialMT-20" x="222.216797"/>
     <use xlink:href="#ArialMT-43" x="250"/>
     <use xlink:href="#ArialMT-75" x="322.216797"/>
     <use xlink:href="#ArialMT-72" x="377.832031"/>
     <use xlink:href="#ArialMT-76" x="411.132812"/>
     <use xlink:href="#ArialMT-65" x="461.132812"/>
     <use xlink:href="#ArialMT-20" x="516.748047"/>
     <use xlink:href="#ArialMT-6f" x="544.53125"/>
     <use xlink:href="#ArialMT-6e" x="600.146484"/>
     <use xlink:href="#ArialMT-20" x="655.761719"/>
     <use xlink:href="#ArialMT-56" x="683.544922"/>
     <use xlink:href="#ArialMT-69" x="748.494141"/>
     <use xlink:href="#ArialMT-54" x="770.710938"/>
    </g>
   </g>
   <g id="legend_1">
    <g id="patch_7">
     <path d="M 320.059375 507.64 
L 511.4 507.64 
Q 513.4 507.64 513.4 505.64 
L 513.4 406.4025 
Q 513.4 404.4025 511.4 404.4025 
L 320.059375 404.4025 
Q 318.059375 404.4025 318.059375 406.4025 
L 318.059375 505.64 
Q 318.059375 507.64 320.059375 507.64 
z
" style="fill: #eaeaf2; opacity: 0.8; stroke: #cccccc; stroke-linejoin: miter"/>
    </g>
    <g id="line2d_21">
     <path d="M 322.059375 412.060313 
L 332.059375 412.060313 
L 342.059375 412.060313 
" style="fill: none; stroke: #1f77b4; stroke-width: 1.5; stroke-linecap: round"/>
    </g>
    <g id="text_16">
     <!-- Entropy -->
     <g style="fill: #262626" transform="translate(350.059375 415.560313) scale(0.1 -0.1)">
      <defs>
       <path id="ArialMT-45" d="M 506 0 
L 506 4581 
L 3819 4581 
L 3819 4041 
L 1113 4041 
L 1113 2638 
L 3647 2638 
L 3647 2100 
L 1113 2100 
L 1113 541 
L 3925 541 
L 3925 0 
L 506 0 
z
" transform="scale(0.015625)"/>
       <path id="ArialMT-70" d="M 422 -1272 
L 422 3319 
L 934 3319 
L 934 2888 
Q 1116 3141 1344 3267 
Q 1572 3394 1897 3394 
Q 2322 3394 2647 3175 
Q 2972 2956 3137 2557 
Q 3303 2159 3303 1684 
Q 3303 1175 3120 767 
Q 2938 359 2589 142 
Q 2241 -75 1856 -75 
Q 1575 -75 1351 44 
Q 1128 163 984 344 
L 984 -1272 
L 422 -1272 
z
M 931 1641 
Q 931 1000 1190 694 
Q 1450 388 1819 388 
Q 2194 388 2461 705 
Q 2728 1022 2728 1688 
Q 2728 2322 2467 2637 
Q 2206 2953 1844 2953 
Q 1484 2953 1207 2617 
Q 931 2281 931 1641 
z
" transform="scale(0.015625)"/>
       <path id="ArialMT-79" d="M 397 -1278 
L 334 -750 
Q 519 -800 656 -800 
Q 844 -800 956 -737 
Q 1069 -675 1141 -563 
Q 1194 -478 1313 -144 
Q 1328 -97 1363 -6 
L 103 3319 
L 709 3319 
L 1400 1397 
Q 1534 1031 1641 628 
Q 1738 1016 1872 1384 
L 2581 3319 
L 3144 3319 
L 1881 -56 
Q 1678 -603 1566 -809 
Q 1416 -1088 1222 -1217 
Q 1028 -1347 759 -1347 
Q 597 -1347 397 -1278 
z
" transform="scale(0.015625)"/>
      </defs>
      <use xlink:href="#ArialMT-45"/>
      <use xlink:href="#ArialMT-6e" x="66.699219"/>
      <use xlink:href="#ArialMT-74" x="122.314453"/>
      <use xlink:href="#ArialMT-72" x="150.097656"/>
      <use xlink:href="#ArialMT-6f" x="183.398438"/>
      <use xlink:href="#ArialMT-70" x="239.013672"/>
      <use xlink:href="#ArialMT-79" x="294.628906"/>
     </g>
    </g>
    <g id="line2d_22">
     <path d="M 322.059375 426.450938 
L 332.059375 426.450938 
L 342.059375 426.450938 
" style="fill: none; stroke: #ff7f0e; stroke-width: 1.5; stroke-linecap: round"/>
    </g>
    <g id="text_17">
     <!-- One minus max prob -->
     <g style="fill: #262626" transform="translate(350.059375 429.950938) scale(0.1 -0.1)">
      <defs>
       <path id="ArialMT-6d" d="M 422 0 
L 422 3319 
L 925 3319 
L 925 2853 
Q 1081 3097 1340 3245 
Q 1600 3394 1931 3394 
Q 2300 3394 2536 3241 
Q 2772 3088 2869 2813 
Q 3263 3394 3894 3394 
Q 4388 3394 4653 3120 
Q 4919 2847 4919 2278 
L 4919 0 
L 4359 0 
L 4359 2091 
Q 4359 2428 4304 2576 
Q 4250 2725 4106 2815 
Q 3963 2906 3769 2906 
Q 3419 2906 3187 2673 
Q 2956 2441 2956 1928 
L 2956 0 
L 2394 0 
L 2394 2156 
Q 2394 2531 2256 2718 
Q 2119 2906 1806 2906 
Q 1569 2906 1367 2781 
Q 1166 2656 1075 2415 
Q 984 2175 984 1722 
L 984 0 
L 422 0 
z
" transform="scale(0.015625)"/>
       <path id="ArialMT-78" d="M 47 0 
L 1259 1725 
L 138 3319 
L 841 3319 
L 1350 2541 
Q 1494 2319 1581 2169 
Q 1719 2375 1834 2534 
L 2394 3319 
L 3066 3319 
L 1919 1756 
L 3153 0 
L 2463 0 
L 1781 1031 
L 1600 1309 
L 728 0 
L 47 0 
z
" transform="scale(0.015625)"/>
       <path id="ArialMT-62" d="M 941 0 
L 419 0 
L 419 4581 
L 981 4581 
L 981 2947 
Q 1338 3394 1891 3394 
Q 2197 3394 2470 3270 
Q 2744 3147 2920 2923 
Q 3097 2700 3197 2384 
Q 3297 2069 3297 1709 
Q 3297 856 2875 390 
Q 2453 -75 1863 -75 
Q 1275 -75 941 416 
L 941 0 
z
M 934 1684 
Q 934 1088 1097 822 
Q 1363 388 1816 388 
Q 2184 388 2453 708 
Q 2722 1028 2722 1663 
Q 2722 2313 2464 2622 
Q 2206 2931 1841 2931 
Q 1472 2931 1203 2611 
Q 934 2291 934 1684 
z
" transform="scale(0.015625)"/>
      </defs>
      <use xlink:href="#ArialMT-4f"/>
      <use xlink:href="#ArialMT-6e" x="77.783203"/>
      <use xlink:href="#ArialMT-65" x="133.398438"/>
      <use xlink:href="#ArialMT-20" x="189.013672"/>
      <use xlink:href="#ArialMT-6d" x="216.796875"/>
      <use xlink:href="#ArialMT-69" x="300.097656"/>
      <use xlink:href="#ArialMT-6e" x="322.314453"/>
      <use xlink:href="#ArialMT-75" x="377.929688"/>
      <use xlink:href="#ArialMT-73" x="433.544922"/>
      <use xlink:href="#ArialMT-20" x="483.544922"/>
      <use xlink:href="#ArialMT-6d" x="511.328125"/>
      <use xlink:href="#ArialMT-61" x="594.628906"/>
      <use xlink:href="#ArialMT-78" x="650.244141"/>
      <use xlink:href="#ArialMT-20" x="700.244141"/>
      <use xlink:href="#ArialMT-70" x="728.027344"/>
      <use xlink:href="#ArialMT-72" x="783.642578"/>
      <use xlink:href="#ArialMT-6f" x="816.943359"/>
      <use xlink:href="#ArialMT-62" x="872.558594"/>
     </g>
    </g>
    <g id="line2d_23">
     <path d="M 322.059375 440.724375 
L 332.059375 440.724375 
L 342.059375 440.724375 
" style="fill: none; stroke: #2ca02c; stroke-width: 1.5; stroke-linecap: round"/>
    </g>
    <g id="text_18">
     <!-- One minus sum of top 3 prob -->
     <g style="fill: #262626" transform="translate(350.059375 444.224375) scale(0.1 -0.1)">
      <defs>
       <path id="ArialMT-66" d="M 556 0 
L 556 2881 
L 59 2881 
L 59 3319 
L 556 3319 
L 556 3672 
Q 556 4006 616 4169 
Q 697 4388 901 4523 
Q 1106 4659 1475 4659 
Q 1713 4659 2000 4603 
L 1916 4113 
Q 1741 4144 1584 4144 
Q 1328 4144 1222 4034 
Q 1116 3925 1116 3625 
L 1116 3319 
L 1763 3319 
L 1763 2881 
L 1116 2881 
L 1116 0 
L 556 0 
z
" transform="scale(0.015625)"/>
       <path id="ArialMT-33" d="M 269 1209 
L 831 1284 
Q 928 806 1161 595 
Q 1394 384 1728 384 
Q 2125 384 2398 659 
Q 2672 934 2672 1341 
Q 2672 1728 2419 1979 
Q 2166 2231 1775 2231 
Q 1616 2231 1378 2169 
L 1441 2663 
Q 1497 2656 1531 2656 
Q 1891 2656 2178 2843 
Q 2466 3031 2466 3422 
Q 2466 3731 2256 3934 
Q 2047 4138 1716 4138 
Q 1388 4138 1169 3931 
Q 950 3725 888 3313 
L 325 3413 
Q 428 3978 793 4289 
Q 1159 4600 1703 4600 
Q 2078 4600 2393 4439 
Q 2709 4278 2876 4000 
Q 3044 3722 3044 3409 
Q 3044 3113 2884 2869 
Q 2725 2625 2413 2481 
Q 2819 2388 3044 2092 
Q 3269 1797 3269 1353 
Q 3269 753 2831 336 
Q 2394 -81 1725 -81 
Q 1122 -81 723 278 
Q 325 638 269 1209 
z
" transform="scale(0.015625)"/>
      </defs>
      <use xlink:href="#ArialMT-4f"/>
      <use xlink:href="#ArialMT-6e" x="77.783203"/>
      <use xlink:href="#ArialMT-65" x="133.398438"/>
      <use xlink:href="#ArialMT-20" x="189.013672"/>
      <use xlink:href="#ArialMT-6d" x="216.796875"/>
      <use xlink:href="#ArialMT-69" x="300.097656"/>
      <use xlink:href="#ArialMT-6e" x="322.314453"/>
      <use xlink:href="#ArialMT-75" x="377.929688"/>
      <use xlink:href="#ArialMT-73" x="433.544922"/>
      <use xlink:href="#ArialMT-20" x="483.544922"/>
      <use xlink:href="#ArialMT-73" x="511.328125"/>
      <use xlink:href="#ArialMT-75" x="561.328125"/>
      <use xlink:href="#ArialMT-6d" x="616.943359"/>
      <use xlink:href="#ArialMT-20" x="700.244141"/>
      <use xlink:href="#ArialMT-6f" x="728.027344"/>
      <use xlink:href="#ArialMT-66" x="783.642578"/>
      <use xlink:href="#ArialMT-20" x="811.425781"/>
      <use xlink:href="#ArialMT-74" x="839.208984"/>
      <use xlink:href="#ArialMT-6f" x="866.992188"/>
      <use xlink:href="#ArialMT-70" x="922.607422"/>
      <use xlink:href="#ArialMT-20" x="978.222656"/>
      <use xlink:href="#ArialMT-33" x="1006.005859"/>
      <use xlink:href="#ArialMT-20" x="1061.621094"/>
      <use xlink:href="#ArialMT-70" x="1089.404297"/>
      <use xlink:href="#ArialMT-72" x="1145.019531"/>
      <use xlink:href="#ArialMT-6f" x="1178.320312"/>
      <use xlink:href="#ArialMT-62" x="1233.935547"/>
     </g>
    </g>
    <g id="line2d_24">
     <path d="M 322.059375 454.997813 
L 332.059375 454.997813 
L 342.059375 454.997813 
" style="fill: none; stroke: #d62728; stroke-width: 1.5; stroke-linecap: round"/>
    </g>
    <g id="text_19">
     <!-- One minus max logit -->
     <g style="fill: #262626" transform="translate(350.059375 458.497813) scale(0.1 -0.1)">
      <defs>
       <path id="ArialMT-67" d="M 319 -275 
L 866 -356 
Q 900 -609 1056 -725 
Q 1266 -881 1628 -881 
Q 2019 -881 2231 -725 
Q 2444 -569 2519 -288 
Q 2563 -116 2559 434 
Q 2191 0 1641 0 
Q 956 0 581 494 
Q 206 988 206 1678 
Q 206 2153 378 2554 
Q 550 2956 876 3175 
Q 1203 3394 1644 3394 
Q 2231 3394 2613 2919 
L 2613 3319 
L 3131 3319 
L 3131 450 
Q 3131 -325 2973 -648 
Q 2816 -972 2473 -1159 
Q 2131 -1347 1631 -1347 
Q 1038 -1347 672 -1080 
Q 306 -813 319 -275 
z
M 784 1719 
Q 784 1066 1043 766 
Q 1303 466 1694 466 
Q 2081 466 2343 764 
Q 2606 1063 2606 1700 
Q 2606 2309 2336 2618 
Q 2066 2928 1684 2928 
Q 1309 2928 1046 2623 
Q 784 2319 784 1719 
z
" transform="scale(0.015625)"/>
      </defs>
      <use xlink:href="#ArialMT-4f"/>
      <use xlink:href="#ArialMT-6e" x="77.783203"/>
      <use xlink:href="#ArialMT-65" x="133.398438"/>
      <use xlink:href="#ArialMT-20" x="189.013672"/>
      <use xlink:href="#ArialMT-6d" x="216.796875"/>
      <use xlink:href="#ArialMT-69" x="300.097656"/>
      <use xlink:href="#ArialMT-6e" x="322.314453"/>
      <use xlink:href="#ArialMT-75" x="377.929688"/>
      <use xlink:href="#ArialMT-73" x="433.544922"/>
      <use xlink:href="#ArialMT-20" x="483.544922"/>
      <use xlink:href="#ArialMT-6d" x="511.328125"/>
      <use xlink:href="#ArialMT-61" x="594.628906"/>
      <use xlink:href="#ArialMT-78" x="650.244141"/>
      <use xlink:href="#ArialMT-20" x="700.244141"/>
      <use xlink:href="#ArialMT-6c" x="728.027344"/>
      <use xlink:href="#ArialMT-6f" x="750.244141"/>
      <use xlink:href="#ArialMT-67" x="805.859375"/>
      <use xlink:href="#ArialMT-69" x="861.474609"/>
      <use xlink:href="#ArialMT-74" x="883.691406"/>
     </g>
    </g>
    <g id="line2d_25">
     <path d="M 322.059375 469.388438 
L 332.059375 469.388438 
L 342.059375 469.388438 
" style="fill: none; stroke: #9467bd; stroke-width: 1.5; stroke-linecap: round"/>
    </g>
    <g id="text_20">
     <!-- One minus sum of top 3 logit -->
     <g style="fill: #262626" transform="translate(350.059375 472.888438) scale(0.1 -0.1)">
      <use xlink:href="#ArialMT-4f"/>
      <use xlink:href="#ArialMT-6e" x="77.783203"/>
      <use xlink:href="#ArialMT-65" x="133.398438"/>
      <use xlink:href="#ArialMT-20" x="189.013672"/>
      <use xlink:href="#ArialMT-6d" x="216.796875"/>
      <use xlink:href="#ArialMT-69" x="300.097656"/>
      <use xlink:href="#ArialMT-6e" x="322.314453"/>
      <use xlink:href="#ArialMT-75" x="377.929688"/>
      <use xlink:href="#ArialMT-73" x="433.544922"/>
      <use xlink:href="#ArialMT-20" x="483.544922"/>
      <use xlink:href="#ArialMT-73" x="511.328125"/>
      <use xlink:href="#ArialMT-75" x="561.328125"/>
      <use xlink:href="#ArialMT-6d" x="616.943359"/>
      <use xlink:href="#ArialMT-20" x="700.244141"/>
      <use xlink:href="#ArialMT-6f" x="728.027344"/>
      <use xlink:href="#ArialMT-66" x="783.642578"/>
      <use xlink:href="#ArialMT-20" x="811.425781"/>
      <use xlink:href="#ArialMT-74" x="839.208984"/>
      <use xlink:href="#ArialMT-6f" x="866.992188"/>
      <use xlink:href="#ArialMT-70" x="922.607422"/>
      <use xlink:href="#ArialMT-20" x="978.222656"/>
      <use xlink:href="#ArialMT-33" x="1006.005859"/>
      <use xlink:href="#ArialMT-20" x="1061.621094"/>
      <use xlink:href="#ArialMT-6c" x="1089.404297"/>
      <use xlink:href="#ArialMT-6f" x="1111.621094"/>
      <use xlink:href="#ArialMT-67" x="1167.236328"/>
      <use xlink:href="#ArialMT-69" x="1222.851562"/>
      <use xlink:href="#ArialMT-74" x="1245.068359"/>
     </g>
    </g>
    <g id="line2d_26">
     <path d="M 322.059375 483.772812 
L 332.059375 483.772812 
L 342.059375 483.772812 
" style="fill: none; stroke: #8c564b; stroke-width: 1.5; stroke-linecap: round"/>
    </g>
    <g id="text_21">
     <!-- Normalized difference of top 2 logits -->
     <g style="fill: #262626" transform="translate(350.059375 487.272812) scale(0.1 -0.1)">
      <defs>
       <path id="ArialMT-4e" d="M 488 0 
L 488 4581 
L 1109 4581 
L 3516 984 
L 3516 4581 
L 4097 4581 
L 4097 0 
L 3475 0 
L 1069 3600 
L 1069 0 
L 488 0 
z
" transform="scale(0.015625)"/>
       <path id="ArialMT-7a" d="M 125 0 
L 125 456 
L 2238 2881 
Q 1878 2863 1603 2863 
L 250 2863 
L 250 3319 
L 2963 3319 
L 2963 2947 
L 1166 841 
L 819 456 
Q 1197 484 1528 484 
L 3063 484 
L 3063 0 
L 125 0 
z
" transform="scale(0.015625)"/>
       <path id="ArialMT-64" d="M 2575 0 
L 2575 419 
Q 2259 -75 1647 -75 
Q 1250 -75 917 144 
Q 584 363 401 755 
Q 219 1147 219 1656 
Q 219 2153 384 2558 
Q 550 2963 881 3178 
Q 1213 3394 1622 3394 
Q 1922 3394 2156 3267 
Q 2391 3141 2538 2938 
L 2538 4581 
L 3097 4581 
L 3097 0 
L 2575 0 
z
M 797 1656 
Q 797 1019 1065 703 
Q 1334 388 1700 388 
Q 2069 388 2326 689 
Q 2584 991 2584 1609 
Q 2584 2291 2321 2609 
Q 2059 2928 1675 2928 
Q 1300 2928 1048 2622 
Q 797 2316 797 1656 
z
" transform="scale(0.015625)"/>
       <path id="ArialMT-63" d="M 2588 1216 
L 3141 1144 
Q 3050 572 2676 248 
Q 2303 -75 1759 -75 
Q 1078 -75 664 370 
Q 250 816 250 1647 
Q 250 2184 428 2587 
Q 606 2991 970 3192 
Q 1334 3394 1763 3394 
Q 2303 3394 2647 3120 
Q 2991 2847 3088 2344 
L 2541 2259 
Q 2463 2594 2264 2762 
Q 2066 2931 1784 2931 
Q 1359 2931 1093 2626 
Q 828 2322 828 1663 
Q 828 994 1084 691 
Q 1341 388 1753 388 
Q 2084 388 2306 591 
Q 2528 794 2588 1216 
z
" transform="scale(0.015625)"/>
      </defs>
      <use xlink:href="#ArialMT-4e"/>
      <use xlink:href="#ArialMT-6f" x="72.216797"/>
      <use xlink:href="#ArialMT-72" x="127.832031"/>
      <use xlink:href="#ArialMT-6d" x="161.132812"/>
      <use xlink:href="#ArialMT-61" x="244.433594"/>
      <use xlink:href="#ArialMT-6c" x="300.048828"/>
      <use xlink:href="#ArialMT-69" x="322.265625"/>
      <use xlink:href="#ArialMT-7a" x="344.482422"/>
      <use xlink:href="#ArialMT-65" x="394.482422"/>
      <use xlink:href="#ArialMT-64" x="450.097656"/>
      <use xlink:href="#ArialMT-20" x="505.712891"/>
      <use xlink:href="#ArialMT-64" x="533.496094"/>
      <use xlink:href="#ArialMT-69" x="589.111328"/>
      <use xlink:href="#ArialMT-66" x="611.328125"/>
      <use xlink:href="#ArialMT-66" x="637.361328"/>
      <use xlink:href="#ArialMT-65" x="665.144531"/>
      <use xlink:href="#ArialMT-72" x="720.759766"/>
      <use xlink:href="#ArialMT-65" x="754.060547"/>
      <use xlink:href="#ArialMT-6e" x="809.675781"/>
      <use xlink:href="#ArialMT-63" x="865.291016"/>
      <use xlink:href="#ArialMT-65" x="915.291016"/>
      <use xlink:href="#ArialMT-20" x="970.90625"/>
      <use xlink:href="#ArialMT-6f" x="998.689453"/>
      <use xlink:href="#ArialMT-66" x="1054.304688"/>
      <use xlink:href="#ArialMT-20" x="1082.087891"/>
      <use xlink:href="#ArialMT-74" x="1109.871094"/>
      <use xlink:href="#ArialMT-6f" x="1137.654297"/>
      <use xlink:href="#ArialMT-70" x="1193.269531"/>
      <use xlink:href="#ArialMT-20" x="1248.884766"/>
      <use xlink:href="#ArialMT-32" x="1276.667969"/>
      <use xlink:href="#ArialMT-20" x="1332.283203"/>
      <use xlink:href="#ArialMT-6c" x="1360.066406"/>
      <use xlink:href="#ArialMT-6f" x="1382.283203"/>
      <use xlink:href="#ArialMT-67" x="1437.898438"/>
      <use xlink:href="#ArialMT-69" x="1493.513672"/>
      <use xlink:href="#ArialMT-74" x="1515.730469"/>
      <use xlink:href="#ArialMT-73" x="1543.513672"/>
     </g>
    </g>
    <g id="line2d_27">
     <path d="M 322.059375 498.035313 
L 332.059375 498.035313 
L 342.059375 498.035313 
" style="fill: none; stroke: #e377c2; stroke-width: 1.5; stroke-linecap: round"/>
    </g>
    <g id="text_22">
     <!-- Energy score -->
     <g style="fill: #262626" transform="translate(350.059375 501.535313) scale(0.1 -0.1)">
      <use xlink:href="#ArialMT-45"/>
      <use xlink:href="#ArialMT-6e" x="66.699219"/>
      <use xlink:href="#ArialMT-65" x="122.314453"/>
      <use xlink:href="#ArialMT-72" x="177.929688"/>
      <use xlink:href="#ArialMT-67" x="211.230469"/>
      <use xlink:href="#ArialMT-79" x="266.845703"/>
      <use xlink:href="#ArialMT-20" x="316.845703"/>
      <use xlink:href="#ArialMT-73" x="344.628906"/>
      <use xlink:href="#ArialMT-63" x="394.628906"/>
      <use xlink:href="#ArialMT-6f" x="444.628906"/>
      <use xlink:href="#ArialMT-72" x="500.244141"/>
      <use xlink:href="#ArialMT-65" x="533.544922"/>
     </g>
    </g>
   </g>
  </g>
 </g>
 <defs>
  <clipPath id="pfc537659c2">
   <rect x="72" y="69.12" width="446.4" height="443.52"/>
  </clipPath>
 </defs>
</svg>
